HIERARCHY
ROOT Hips
{
  OFFSET -31.5692 30.0904 122.763
  CHANNELS 6 Xposition Yposition Zposition Zrotation Xrotation Yrotation
  JOINT LeftUpLeg
  {
    OFFSET 8.64259 1.95398 -2.38835
    CHANNELS 3 Zrotation Xrotation Yrotation
    JOINT LeftLeg
    {
      OFFSET 43.7702 0 0
      CHANNELS 3 Zrotation Xrotation Yrotation
      JOINT LeftFoot
      {
        OFFSET 40.6238 0 0
        CHANNELS 3 Zrotation Xrotation Yrotation
        JOINT LeftToeBase
        {
          OFFSET 12.7242 0 0
          CHANNELS 3 Zrotation Xrotation Yrotation
          End Site
          {
            OFFSET 0 0 0
          }
        }
      }
    }
  }
  JOINT RightUpLeg
  {
    OFFSET -8.2249 1.95398 -2.59336
    CHANNELS 3 Zrotation Xrotation Yrotation
    JOINT RightLeg
    {
      OFFSET 43.5653 0 0
      CHANNELS 3 Zrotation Xrotation Yrotation
      JOINT RightFoot
      {
        OFFSET 40.6238 0 0
        CHANNELS 3 Zrotation Xrotation Yrotation
        JOINT RightToeBase
        {
          OFFSET 12.7242 0 0
          CHANNELS 3 Zrotation Xrotation Yrotation
          End Site
          {
            OFFSET 0 0 0
          }
        }
      }
    }
  }
  JOINT Spine
  {
    OFFSET 0.165834 0.87714 6.61349
    CHANNELS 3 Zrotation Xrotation Yrotation
    JOINT Spine1
    {
      OFFSET 7.38963 1.71661e-005 0
      CHANNELS 3 Zrotation Xrotation Yrotation
      JOINT Spine2
      {
        OFFSET 11.9445 1.14441e-005 0
        CHANNELS 3 Zrotation Xrotation Yrotation
        JOINT Spine3
        {
          OFFSET 14.7254 4.19617e-005 0
          CHANNELS 3 Zrotation Xrotation Yrotation
          JOINT Spine4
          {
            OFFSET 10.9679 0 0
            CHANNELS 3 Zrotation Xrotation Yrotation
            JOINT RightShoulder
            {
              OFFSET 2.46616 -1.6653 3.69651
              CHANNELS 3 Zrotation Xrotation Yrotation
              JOINT RightArm
              {
                OFFSET 13.0012 0 0
                CHANNELS 3 Zrotation Xrotation Yrotation
                JOINT RightForeArm
                {
                  OFFSET 28.7848 1.62311e-005 0
                  CHANNELS 3 Zrotation Xrotation Yrotation
                  JOINT RightHand
                  {
                    OFFSET 26.5688 1.62095e-005 0
                    CHANNELS 3 Zrotation Xrotation Yrotation
                    End Site
                    {
                      OFFSET 0 0 0
                    }
                  }
                }
              }
            }
            JOINT LeftShoulder
            {
              OFFSET 2.38034 -1.29275 -3.7523
              CHANNELS 3 Zrotation Xrotation Yrotation
              JOINT LeftArm
              {
                OFFSET 16.3182 6.07031e-005 0
                CHANNELS 3 Zrotation Xrotation Yrotation
                JOINT LeftForeArm
                {
                  OFFSET 27.0901 0 0
                  CHANNELS 3 Zrotation Xrotation Yrotation
                  JOINT LeftHand
                  {
                    OFFSET 24.5451 1.51738e-005 0
                    CHANNELS 3 Zrotation Xrotation Yrotation
                    End Site
                    {
                      OFFSET 0 0 0
                    }
                  }
                }
              }
            }
            JOINT Neck
            {
              OFFSET 5.0226 -0.0266342 0
              CHANNELS 3 Zrotation Xrotation Yrotation
              JOINT Head
              {
                OFFSET 6.69364 2.86102e-005 0
                CHANNELS 3 Zrotation Xrotation Yrotation
                End Site
                {
                  OFFSET 0 0 0
                }
              }
            }
          }
        }
      }
    }
  }
}
MOTION
Frames:	7
Frame Time:	0.0416667
25.2611 100.635 -351.538 91.9512 -87.9721 91.2761 -170.137 -4.349 94.6005 -11.3345 13.9878 -0.486429 69.8491 6.43368 -2.15173 34.9043 1.0184 6.80232 174.373 -6.55172 93.0502 -12.0129 -2.01235 -0.495978 73.6429 -9.41998 -1.2582 23.5984 1.05043 5.45888 -0.225332 7.90924 -90.2965 11.0538 -0.586 -0.533527 -0.617155 -0.608909 -0.507223 -23.152 -0.398565 -0.684978 -3.13936 -0.398564 -0.684978 91.0413 -29.9069 -104.723 38.0675 0.710893 24.877 -20.8958 -29.4271 -51.7717 -26.3256 2.50054 -24.8531 -89.1808 -50.1232 79.9781 -21.7321 38.7222 -4.65564 -5.292 -25.2961 -27.8496 21.1133 4.28826 19.7624 19.6719 -1.16954 -5.11785 -7.19549 0.342485 3.56347 
25.3388 100.292 -351.297 75.7346 -85.6057 73.4904 -172.452 -2.59401 92.0617 -13.1094 13.5597 0.728703 70.3249 7.43948 -1.53666 35.8842 1.5146 6.90482 172.801 -4.01181 91.3389 -15.0465 -1.41851 0.228778 75.3162 -9.81271 -1.6145 24.044 0.583869 6.6104 -0.510258 7.8224 -90.0901 11.229 -1.05736 -0.0750118 -0.441492 -1.05964 -0.0284035 -22.9797 -0.985937 -0.389351 -2.96708 -0.985935 -0.389365 90.9449 -30.3353 -104.763 39.7287 -0.956492 28.5863 -21.6692 -28.5994 -55.0365 -29.0821 2.70405 -23.8244 -87.8186 -48.1539 81.6556 -23.5719 35.1593 -0.308852 1.88233 -10.55 -29.4767 34.5773 -1.82469 -12.271 20.4899 -1.58154 -7.38179 -7.51001 0.647689 4.75082 
25.0959 99.7387 -350.512 74.4446 -84.9071 71.6972 -173.443 -0.814885 91.4047 -16.2221 12.6699 1.12504 71.9945 9.79391 1.32538 35.9018 1.86139 5.6191 172.332 -2.80395 91.0004 -18.1602 -0.769318 0.469831 77.4263 -10.3547 -1.3096 24.4155 0.709435 5.46902 -0.542228 7.85601 -90.1497 11.1611 -1.14872 -0.185615 -0.509355 -1.15578 -0.134878 -23.0479 -1.03983 -0.522308 -3.03521 -1.03983 -0.522316 91.3722 -29.4295 -104.226 41.3258 -2.40366 31.6062 -21.9485 -29.061 -56.473 -33.4468 2.69558 -21.4151 -86.0709 -49.0966 84.4911 -19.1055 22.2286 -0.863345 17.4686 29.9015 -32.8686 12.5953 -4.37356 -35.2512 21.7899 -1.18346 -5.23935 -7.7652 0.464529 3.18272 
24.6523 99.2362 -349.386 73.9147 -83.6114 71.2816 -173.57 2.60098 91.7386 -23.8077 12.2772 1.15837 72.6834 10.0047 1.88787 36.0772 1.70328 6.56682 172.55 -3.0949 91.5749 -18.5227 1.46187 0.69709 78.7826 -10.5964 -0.0403967 24.397 0.465399 6.51175 -0.5477 7.86359 -90.2749 11.1451 -1.21779 -0.428587 -0.525364 -1.23547 -0.374575 -23.0635 -1.03268 -0.774797 -3.05088 -1.03268 -0.774798 91.2464 -28.9361 -104.656 42.108 -1.72952 34.2397 -25.2436 -30.7186 -58.656 -36.3479 2.18469 -18.8911 -86.2518 -49.2671 84.2405 -20.4854 24.9604 3.71633 20.4247 23.6961 -37.3307 9.72319 -3.81273 -40.1294 22.2449 -1.01407 -3.35834 -7.533 0.0650677 2.10206 
24.2798 98.9917 -348.387 77.6235 -79.7177 74.5561 -175.386 9.5895 90.4425 -35.0938 9.41427 2.28149 72.5714 8.83975 1.43533 34.2311 1.38638 4.20495 172.174 -3.96048 92.0177 -17.3983 4.29178 1.50154 79.0667 -11.0636 -1.38969 24.2209 0.482418 6.73856 -0.81185 7.89439 -90.3268 11.082 -1.76754 -0.479454 -0.587761 -1.78693 -0.401185 -23.13 -1.54172 -0.988607 -3.11732 -1.54171 -0.988602 91.0593 -28.7284 -105.11 42.8968 -1.51679 35.1336 -27.4305 -33.5807 -59.1524 -38.6515 2.3823 -19.4244 -85.9769 -48.2332 84.5024 -22.2485 26.115 6.90597 21.9293 20.7759 -40.5383 10.6905 -4.61912 -42.7237 23.7633 -1.73493 -3.48418 -7.85847 -0.568224 2.76695 
23.9909 98.4547 -347.12 78.8897 -76.1652 75.6218 -176.818 15.3725 89.3216 -44.5385 11.1044 2.91358 72.4109 9.10955 4.97144 32.4176 1.10477 2.04481 172.188 -4.57155 92.742 -17.2019 8.73155 2.10772 80.5992 -10.9198 -0.214948 24.2406 0.902305 4.97134 -0.933106 7.95651 -90.4136 10.9559 -2.04907 -0.628066 -0.713499 -2.07472 -0.537245 -23.2577 -1.76556 -1.215 -3.24502 -1.76557 -1.21501 90.2451 -29.3057 -106.538 43.1337 0.438923 35.733 -25.849 -34.0236 -56.349 -42.6205 3.35055 -20.823 -86.2283 -46.8552 83.8968 -24.1568 26.7454 9.47574 23.7773 18.3692 -43.3215 10.8955 -4.91943 -44.0029 25.6566 -2.81931 -4.00606 -7.5905 -1.39078 3.85638 
23.7113 97.9521 -345.553 76.886 -73.8786 73.4324 -177.3 21.1269 87.7376 -51.9634 8.53879 2.73447 73.3123 9.32146 5.46901 30.3371 0.540967 0.598346 172.631 -4.96015 93.4035 -16.1726 10.6153 2.17443 80.7397 -10.4592 -0.0757543 25.2274 0.515344 4.8562 -0.863703 7.91003 -90.4786 11.0477 -1.94109 -0.765517 -0.621976 -1.9729 -0.679321 -23.164 -1.62129 -1.3136 -3.15137 -1.62128 -1.31359 90.3311 -29.7036 -106.213 43.0581 1.31989 34.9606 -27.6418 -34.3602 -57.3216 -44.4985 3.25256 -20.0592 -86.3179 -46.4605 83.6928 -24.9455 27.971 12.4368 25.267 16.5823 -46.0319 12.7899 -5.60381 -43.1701 27.0432 -3.89307 -3.83591 -8.04803 -2.45854 4.22105 
